<svg xmlns="http://www.w3.org/2000/svg" width="655.395" height="515.973" viewBox="0 0 655.395 515.973">
  <g id="Group_76" data-name="Group 76" transform="translate(-472.303 -285.014)">
    <g id="Group_72" data-name="Group 72" transform="translate(0 21.646)">
      <g id="Group_68" data-name="Group 68" transform="translate(-14.37 -25.481)">
        <g id="Group_67" data-name="Group 67">
          <g id="Group_58" data-name="Group 58" transform="translate(486.672 288.848)">
            <rect id="Rectangle_25" data-name="Rectangle 25" width="594.735" height="380.895" transform="translate(0.254 0.337)" fill="#e6e6e6"/>
            <rect id="Rectangle_26" data-name="Rectangle 26" width="560.722" height="310.588" transform="translate(17.26 48.111)" fill="#fff"/>
            <rect id="Rectangle_27" data-name="Rectangle 27" width="594.735" height="25.267" fill="#6c63ff"/>
            <circle id="Ellipse_79" data-name="Ellipse 79" cx="4.683" cy="4.683" r="4.683" transform="translate(14.093 8.235)" fill="#fff"/>
            <circle id="Ellipse_80" data-name="Ellipse 80" cx="4.683" cy="4.683" r="4.683" transform="translate(31.868 8.235)" fill="#fff"/>
            <circle id="Ellipse_81" data-name="Ellipse 81" cx="4.683" cy="4.683" r="4.683" transform="translate(49.644 8.235)" fill="#fff"/>
            <rect id="Rectangle_28" data-name="Rectangle 28" width="144.08" height="246.135" transform="translate(68.209 80.337)" fill="#e6e6e6"/>
            <rect id="Rectangle_29" data-name="Rectangle 29" width="120.066" height="67.752" transform="translate(237.16 80.337)" fill="#6c63ff"/>
            <rect id="Rectangle_30" data-name="Rectangle 30" width="120.066" height="72.897" transform="translate(237.16 166.956)" fill="#e6e6e6"/>
            <rect id="Rectangle_31" data-name="Rectangle 31" width="120.066" height="67.752" transform="translate(237.16 258.721)" fill="#e6e6e6"/>
            <rect id="Rectangle_32" data-name="Rectangle 32" width="144.08" height="107.265" transform="translate(382.954 80.337)" fill="#e6e6e6"/>
            <rect id="Rectangle_33" data-name="Rectangle 33" width="144.08" height="107.265" transform="translate(382.954 219.208)" fill="#e6e6e6"/>
            <path id="Path_348" data-name="Path 348" d="M755.712,377.679V354.587a30.944,30.944,0,1,1,61.888,0v23.092a4.161,4.161,0,0,1-4.157,4.157H759.869A4.161,4.161,0,0,1,755.712,377.679Z" transform="translate(-284.183 -182.372)" fill="#2f2e41"/>
            <path id="Path_349" data-name="Path 349" d="M591.221,533.309l-10.914,3.02L563.462,495.67l16.108-4.458Z" transform="translate(-42.992 -37.48)" fill="#ffb8b8"/>
            <path id="Path_350" data-name="Path 350" d="M13.751,0h21.84V13.751H0A13.751,13.751,0,0,1,13.751,0Z" transform="translate(515.404 501.552) rotate(-15.47)" fill="#2f2e41"/>
            <path id="Path_351" data-name="Path 351" d="M468.947,542.267H457.623l-5.388-43.68h16.714Z" transform="translate(-34.506 -38.042)" fill="#ffb8b8"/>
            <path id="Path_352" data-name="Path 352" d="M448.175,542.372h21.84v13.751H434.424A13.751,13.751,0,0,1,448.175,542.372Z" transform="translate(-33.147 -41.383)" fill="#2f2e41"/>
            <path id="Path_353" data-name="Path 353" d="M700.624,451.066a9.288,9.288,0,0,0,14.218.847l30.1,13.54-2.738-16.933L714.04,438.259a9.339,9.339,0,0,0-13.416,12.807Z" transform="translate(-279.837 -190.955)" fill="#ffb8b8"/>
            <path id="Path_354" data-name="Path 354" d="M764.59,552.6c-9.458,0-19.249-1.409-27.479-5.6a35.484,35.484,0,0,1-18.2-21.767c-4.288-13.578,1.118-26.917,6.347-39.816,3.24-7.994,6.3-15.543,7.094-22.985l.277-2.642c1.237-11.867,2.3-22.116,8.218-25.961,3.065-1.993,7.186-2.106,12.6-.348L804.288,450l-1.87,96.517-.309.1C801.844,546.706,783.919,552.6,764.59,552.6Z" transform="translate(-281.257 -190.658)" fill="#2f2e41"/>
            <path id="Path_355" data-name="Path 355" d="M754.2,400.618s24.94-7.39,44.338-4.618c0,0-11.084,60.964-7.39,81.286s-64.2,7.851-50.342-11.546l4.619-23.092s-9.237-9.237-.924-20.321Z" transform="translate(-282.904 -187.846)" fill="#6c63ff"/>
            <path id="Path_356" data-name="Path 356" d="M739.643,548.111l-30.737-5.763,10.731-82.585c.722-2.306,17.345-54.63,24.9-57.462a128.873,128.873,0,0,1,16.78-4.662l1.094-.219-6.163,9.245-24.538,58.8Z" transform="translate(-280.612 -188.002)" fill="#2f2e41"/>
            <path id="Path_357" data-name="Path 357" d="M721.563,687.277l-39.714-6.619,22.287-91.007L737.3,465.2l.327,2.21c.026.165,3.124,16.423,49.1,9.209l.4-.063.112.394L842.8,673.266l-45.253,7.542L756.274,537.573Z" transform="translate(-278.548 -193.173)" fill="#2f2e41"/>
            <path id="Path_358" data-name="Path 358" d="M784.436,563.323l.025-.7c.028-.776,2.76-77.935,1.847-108.966-.916-31.137,9.165-58.1,9.267-58.37l.082-.216.223-.064c13.042-3.726,24.357,7.395,24.47,7.507l.159.159-3.714,30.645,15.9,111.437Z" transform="translate(-286.375 -187.759)" fill="#2f2e41"/>
            <circle id="Ellipse_82" data-name="Ellipse 82" cx="22.687" cy="22.687" r="22.687" transform="translate(473.427 153.552)" fill="#ffb8b8"/>
            <path id="Path_359" data-name="Path 359" d="M747.787,357.121a24.506,24.506,0,0,1,24.478-24.478h4.619a24.505,24.505,0,0,1,24.478,24.478v.462H791.6l-3.329-9.322-.666,9.322h-5.044l-1.68-4.7-.336,4.7H747.787Z" transform="translate(-283.579 -183.059)" fill="#2f2e41"/>
            <path id="Path_360" data-name="Path 360" d="M779.845,385.966a4.1,4.1,0,0,1-.326-4.348c4.894-9.309,11.747-26.51,2.651-37.118l-.654-.762h26.406v39.646l-23.988,4.232a4.242,4.242,0,0,1-.736.065,4.14,4.14,0,0,1-3.354-1.714Z" transform="translate(-285.964 -183.906)" fill="#2f2e41"/>
            <path id="Path_361" data-name="Path 361" d="M647.868,209.82a124.718,124.718,0,1,0,7.071,184.188L807.92,523.094a11.493,11.493,0,1,0,14.84-17.553l-.017-.014L669.762,376.442A124.724,124.724,0,0,0,647.868,209.82Zm-9.862,154.191A93.44,93.44,0,1,1,626.851,232.34h0A93.44,93.44,0,0,1,638.006,364.012Z" transform="translate(-260.302 -171.444)" fill="#3f3d56"/>
            <path id="Path_362" data-name="Path 362" d="M508.032,380.878a93.444,93.444,0,0,1-15.856-125.613q-2.68,2.7-5.181,5.653A93.439,93.439,0,1,0,629.821,381.434q2.5-2.958,4.7-6.059a93.444,93.444,0,0,1-126.49,5.5Z" transform="translate(-261.999 -177.155)" opacity="0.3"/>
            <path id="Path_363" data-name="Path 363" d="M789.621,492.882a9.289,9.289,0,0,0,11.476-8.436l31.806-8.828-12.929-11.272-28.221,10.112a9.339,9.339,0,0,0-2.132,18.424Z" transform="translate(-286.223 -193.108)" fill="#ffb8b8"/>
            <path id="Path_364" data-name="Path 364" d="M804.366,483.523l-1.936-18.387L829,450.478,811.676,429.51l2.827-23.554,7.038-3.016.219.281c3.319,4.268,32.427,41.826,32.427,46.469,0,4.769-5.569,18.773-13.187,22.582-7.349,3.674-34.944,10.816-36.115,11.119Z" transform="translate(-287.748 -188.423)" fill="#2f2e41"/>
            <path id="Path_365" data-name="Path 365" d="M924.619,729.144H572.69a.924.924,0,1,1,0-1.847h351.93a.924.924,0,1,1,0,1.847Z" transform="translate(-270.148 -213.171)" fill="#ccc"/>
          </g>
          <g id="Group_66" data-name="Group 66" transform="translate(-4673.615 -157.401)">
            <path id="Path_445" data-name="Path 445" d="M542.838,336.255a15.083,15.083,0,0,0-25.058,0,13.526,13.526,0,0,0,25.058,0Z" transform="translate(4927.979 210.91)" fill="#fff"/>
            <path id="Path_446" data-name="Path 446" d="M495.78,346.335a3.24,3.24,0,0,1-.622-.353,2.494,2.494,0,0,1-.685-.887,2.537,2.537,0,1,0-4.141.615,2.825,2.825,0,0,0,.6.484,1.746,1.746,0,0,1,.675.707,5.1,5.1,0,0,0,1.173,1.54,10.243,10.243,0,0,0,1.608,1.131,23.429,23.429,0,0,0-1.321,6.911,9.557,9.557,0,0,0-2.692.435,4.343,4.343,0,0,0-1.247.622,2.992,2.992,0,0,0-.307-.021,2.54,2.54,0,1,0,2.378,3.434,1.622,1.622,0,0,1,1.311-1.06,5.924,5.924,0,0,1,.654-.042,22.754,22.754,0,0,0,3.021,9.423,7.412,7.412,0,0,0-2.809,3.837,1.059,1.059,0,0,0-.2.145,2.4,2.4,0,0,0-.3.276,2.537,2.537,0,1,0,4.258.83,1.664,1.664,0,0,1,.413-1.795,7.129,7.129,0,0,1,.6-.516c2.865,3.346,6.275,5.491,10.533,5.745v-22.7A15.67,15.67,0,0,1,495.78,346.335Zm35.272,11.207a2.8,2.8,0,0,0-.307.021,4.79,4.79,0,0,0-1.247-.622,9.489,9.489,0,0,0-2.692-.435,23.943,23.943,0,0,0-1.321-6.907,10.242,10.242,0,0,0,1.608-1.131,5.5,5.5,0,0,0,1.215-1.615,1.491,1.491,0,0,1,.625-.618h0a2.537,2.537,0,1,0-3.533-1.12,2.41,2.41,0,0,1-.685.887,6.656,6.656,0,0,1-.622.456,15.561,15.561,0,0,1-12.889,8.653v22.722c4.24-.254,7.671-2.41,10.533-5.745.223.177.41.336.569.484a1.717,1.717,0,0,1,.445,1.848,2.537,2.537,0,1,0,4.268-.823,2.4,2.4,0,0,0-.3-.276c-.117-.092-.2-.145-.2-.145a7.311,7.311,0,0,0-2.827-3.837,22.754,22.754,0,0,0,3.021-9.423,5.616,5.616,0,0,1,.625.042,1.7,1.7,0,0,1,1.36,1.06,2.537,2.537,0,0,0,4.893-.77,2.576,2.576,0,0,0-2.54-2.706Z" transform="translate(4948.35 203.229)" fill="#fff"/>
          </g>
        </g>
      </g>
    </g>
  </g>
</svg>
